<?xml version="1.0" standalone="no"?>
<!DOCTYPE svg PUBLIC "-//W3C//DTD SVG 1.1//EN" "http://www.w3.org/Graphics/SVG/1.1/DTD/svg11.dtd">
<svg xmlns="http://www.w3.org/2000/svg">
<metadata>Copyright (C) 2018 by original authors @ fontello.com</metadata>
<defs>
<font id="gocig-font" horiz-adv-x="1000" >
<font-face font-family="gocig-font" font-weight="400" font-stretch="normal" units-per-em="1000" ascent="850" descent="-150" />
<missing-glyph horiz-adv-x="1000" />
<glyph glyph-name="rip" unicode="&#xe800;" d="M348 447h-17v-78h13c12 0 23 3 23 25v29c0 22-9 24-19 24z m339 0h-17v-87h17c9 0 17 1 17 22v43c0 21-8 22-17 22z m205-399h-39c0 6 1 11 1 17v546c0 58-34 109-83 134-25 62-85 105-155 105h-232c-70 0-130-43-155-105-49-25-82-76-82-134v-546c0-6 0-11 1-17h-40c-24 0-44-20-44-44v-110c0-24 20-44 44-44h784c24 0 44 20 44 44v110c0 24-20 44-44 44z m-475 161c-3-4-8-6-13-6h-18c-9 0-16 7-18 15 0 6-1 13-1 25v44c0 30-12 32-25 32h-11v-98c0-10-8-18-17-18h-19c-10 0-17 8-17 18v258c0 10 7 18 17 18h55c48 0 70-22 70-70v-22c0-28-8-47-24-58 17-11 25-30 25-61v-44c0-8 0-13 1-19 0-5-1-10-5-14z m127 12c0-10-8-18-18-18h-18c-10 0-18 8-18 18v258c0 10 8 18 18 18h18c10 0 18-8 18-18v-258z m214 164c0-62-39-75-71-75h-17v-89c0-10-8-18-18-18h-18c-10 0-18 8-18 18v258c0 10 8 18 18 18h53c32 0 71-13 71-75v-37z" horiz-adv-x="1000" />

<glyph glyph-name="usd-circle-o" unicode="&#xe801;" d="M500 850c-276 0-500-224-500-500s224-500 500-500 500 224 500 500-224 500-500 500z m0-938c-241 0-437 197-437 438s196 438 437 438 438-197 438-438-197-438-438-438z m155 419c12-20 18-44 18-71 0-41-12-75-37-103-24-28-60-44-106-49v-70h-59v70c-78 8-126 53-144 135l91 24c9-52 37-78 85-78 22 0 38 6 49 17s16 24 16 40c0 16-6 28-16 37-11 8-34 19-70 31-33 12-58 23-77 34-18 11-33 26-44 46-12 20-17 43-17 70 0 34 10 65 30 93 21 28 53 45 97 51v55h59v-55c66-8 109-45 128-112l-81-34c-16 46-41 69-74 69-17 0-30-5-40-15-10-11-15-23-15-38 0-15 4-26 14-34 10-8 31-18 63-29 35-13 63-25 83-37 20-11 35-27 47-47z" horiz-adv-x="1000" />

<glyph glyph-name="atoms" unicode="&#xe802;" d="M883 85c-24 0-46-7-65-20l-176 178c-2 1-3 3-5 4 22 28 35 64 35 103 0 55-27 105-68 136l73 128c12-4 25-6 38-6 67 0 121 54 121 121 0 67-54 121-121 121-67 0-121-54-121-121 0-37 17-70 42-92l-72-128c-20 8-41 13-64 13-39 0-75-13-103-35-1 0-1 1-1 1l-100 100c6 11 9 23 9 35 0 44-35 79-79 79-43 0-78-35-78-79 0-43 35-78 78-78 14 0 26 4 37 10l99-100c1 0 1-1 2-1-22-29-36-65-36-104 0-34 11-66 28-93l-163-142c-21 15-45 24-72 24-67 0-121-55-121-121 0-67 54-121 121-121s121 54 121 121c0 23-7 44-18 62l163 141c30-26 70-43 113-43 40 0 76 14 105 36 1-1 2-3 3-4l177-178c-12-18-20-41-20-65 0-64 53-117 118-117 64 0 117 53 117 117 0 65-53 118-117 118z" horiz-adv-x="1000" />

<glyph glyph-name="search-documents" unicode="&#xe803;" d="M290 850v-180h-180v-685l-22-20c-9-8-10-23-1-32l23-26v-45h41l4-5c8-9 23-10 32-1l6 6h547v179h179v809h-629z m-60-955l148 135c10 8 10 23 2 32l-68 75c-9 10-23 10-32 2l-137-124v622h564v-153c0 0 0 0 0 0-44 37-100 60-161 60-139 0-251-112-251-251 0-138 112-250 251-250 61 0 117 23 161 59v-208h-477v1z m316 216c-101 0-183 81-183 182 0 101 82 183 183 183 101 0 183-82 183-183-1-101-82-182-183-182z m340-37h-147v62c0 0 0 0 0 0 36 43 57 97 57 157 0 60-21 115-56 158v219h-417v147h563v-743z" horiz-adv-x="1000" />

<glyph glyph-name="chip-brain" unicode="&#xe804;" d="M849 604v95h-95v151h-65v-151h-83v151h-65v-151h-82v151h-65v-151h-82v151h-66v-151h-95v-95h-151v-65h151v-83h-151v-65h151v-82h-151v-65h151v-82h-151v-66h151v-95h95v-151h66v151h82v-151h65v151h82v-151h65v151h83v-151h65v151h95v95h151v66h-151v82h151v65h-151v82h151v65h-151v83h151v65h-151z m-65-538h0-568v568h568v-568z m-50 336c0 44-28 84-67 100-3 52-47 94-100 94-26 0-49-9-67-26-18 17-41 26-67 26-53 0-97-42-100-94-39-16-67-56-67-100 0-19 5-37 13-52-8-16-13-33-13-52 0-45 28-84 67-100 3-52 47-94 100-94 26 0 49 10 67 26 18-16 41-26 67-26 53 0 97 42 100 94 39 16 67 55 67 100 0 19-5 36-13 52 8 15 13 33 13 52z m-267-199c0-19-15-34-34-34-16 0-29 10-33 24 21 5 40 17 54 33l-48 44c-8-10-19-15-32-15-23 0-43 20-43 43 0 2 0 3 1 4 13-5 27-8 42-8v65c-23 0-43 19-43 43 0 15 9 29 21 37 11-16 27-29 46-36l23 61c-14 5-23 18-23 33 0 19 16 34 35 34 19 0 34-15 34-34v-294z m202 99c0-1 0-2 0-4 0-23-20-43-43-43-12 0-24 5-32 15l-48-44c14-16 33-28 54-33-4-14-17-24-33-24-19 0-34 15-34 34v294c0 19 15 34 34 34 19 0 35-15 35-34 0-15-9-28-23-33l23-61c19 7 35 20 46 35 12-7 21-21 21-36 0-24-20-43-43-43v-65c15 0 29 3 43 8z" horiz-adv-x="1000" />

<glyph glyph-name="list-one-checked" unicode="&#xe805;" d="M294 781c-9 10-25 10-35 0l-160-158-56 56c-10 10-26 10-36 0s-10-25 0-35l75-75c5-5 11-7 18-7 6 0 12 2 17 7l178 176c9 10 9 26-1 36z m-143-317c-62 0-113-51-113-114s51-113 113-113 113 51 113 113c0 63-51 114-113 114z m0-177l0 0c-35 0-63 29-63 63s28 63 63 63 63-28 63-63-28-63-63-63z m0-149c-62 0-113-51-113-113s51-114 113-114 113 51 113 114c0 63-51 113-113 113z m0-176l0 0c-35 0-63 28-63 63s28 63 63 63 63-28 63-63c0-35-28-63-63-63z m823 462h-584c-14 0-26-12-26-26s12-25 26-25h584c15 0 26 11 26 25s-11 26-26 26z m0-97h-584c-14 0-26-11-26-25s12-26 26-26h584c15 0 26 12 26 26s-11 25-26 25z m-584-279h584c15 0 26 12 26 26s-11 25-26 25h-584c-14 0-26-11-26-25s12-26 26-26z m584-97c15 0 26 12 26 26s-11 25-26 25h-584c-14 0-26-11-26-25s12-26 26-26h584z m-609 773c0-14 11-26 25-26h585c14 0 25 12 25 26s-11 25-25 25h-585c-14 0-25-11-25-25z m609-72h-584c-14 0-26-11-26-25 0-14 12-26 26-26h584c15 0 26 12 26 26 0 14-11 25-26 25z" horiz-adv-x="1000" />

<glyph glyph-name="empty-box-open" unicode="&#xe806;" d="M1000 243v360c0 1 0 2 0 3 0 1 0 1 0 1 0 1-1 2-1 3 0 0 0 0 0 0 0 1 0 1-1 2 0 0 0 1 0 1 0 0 0 0 0 0-1 1-1 2-2 3 0 0 0 0 0 0 0 1-1 2-2 2 0 1 0 1 0 1-1 0-1 1-2 2 0 0 0 0 0 0-1 1-2 1-3 2 0 0 0 0 0 0-1 0-2 1-3 1 0 0 0 0 0 0l-534 224c0 0 0 0 0 0 0 0 0 0 0 1-4 1-7 1-10 1 0 0-1 0-1 0-1 0-3 0-4-1 0 0 0 0 0 0-1 0-2 0-2-1 0 0 0 0 0 0l-157-65c-8-4-14-12-14-21s6-18 14-21l143-60v-199l-407-171c0 0-1-1-1-1 0 0 0 0-1 0 0 0-1-1-2-1 0 0 0 0 0 0 0 0 0 0 0 0-1-1-1-1-2-2 0 0 0 0 0 0-1-1-1-1-2-2 0 0 0 0 0 0-1-1-1-1-2-2 0 0 0 0 0 0 0-1-1-2-1-2 0 0 0 0 0 0-1-1-1-2-1-3 0 0 0 0-1 0 0-1 0-2 0-2 0 0 0-1 0-1 0-1-1-1-1-2 0 0 0 0 0 0 0-1 0-2 0-3v-193c0-9 6-18 14-21l534-224c1-1 3-1 4-2 0 0 0 0 1 0 0 0 1 0 1 0 1 0 2 0 3 0s1 0 2 0c0 0 1 0 2 0 0 0 0 0 0 0 2 1 3 1 4 2l421 176c9 4 14 12 14 21v193c0 0 0 1 0 1z m-253-73l-143 60c-11 5-24 0-29-12s0-25 12-29l102-43-132-56-246 103 133 56 80-34c11-5 25 1 30 12 4 12-1 25-13 30l-75 31v144l453-190-172-72z m-326 118l-168-70-172 72 340 142v-144z m23 515l475-200-98-41-369 155c0 0 0 0 0 0l-107 45 99 41z m368-286c3-1 6-2 9-2 3 0 6 1 9 2l125 52v-292l-489 205v180l346-145z m-767-261l489-205v-144l-489 205v144z m910-192l-376-157v144l376 157v-144z" horiz-adv-x="1000" />

<glyph glyph-name="brain-chip-people" unicode="&#xe807;" d="M836 459c-3 216-181 391-400 391-221 0-401-178-401-394 0-6-12-141 84-277 41-59 68-115 81-172 10-39 16-105 16-157h42c0 55-7 125-17 167-15 62-44 122-88 186-87 123-76 247-76 251 0 195 161 354 359 354 197 0 358-159 358-354v-6l101-181h-90v-188h-166v-229h41v188h167v187h119l-130 234z m-260 99v42h-42v63h-41v-63h-42v63h-42v-63h-41v63h-42v-63h-42v-42h-62v-41h62v-42h-62v-42h62v-41h-62v-42h62v-42h42v-62h42v62h41v-62h42v62h42v-62h41v62h42v42h63v42h-63v41h63v42h-63v42h63v0 41h-63z m-42-208h-208v208h208v-208z" horiz-adv-x="1000" />

<glyph glyph-name="folder-file" unicode="&#xe808;" d="M958 400h-58v105c0 25-20 45-45 45h-55v40l-8 9c0 0 0 0 0 0l-122 121-130 130h-407v-183h-87c-26 0-46-21-46-46v-728l0 0c0-9 3-19 9-26 8-11 20-17 34-17h746c19 0 36 13 41 30l170 468v3c0 28-18 49-42 49z m-103 117c6 0 12-6 12-12v-105h-67v117h55z m-305 276l193-193h-193v193z m-383 24h350v-250h250v-17-150h-555c-2 0-5 0-7-1-16-2-30-14-34-29l-4-13v310 150z m-134-196c0 7 6 12 13 12h87v-367l-100-273v628z m765-731c-1-4-5-7-9-7h-746c-4 0-7 3-8 4-1 1-2 4-2 7l100 274v0l70 190 0 2c1 4 5 7 9 7h555 33 100 58c7 0 8-9 9-14l-169-463z m-531 677h166c10 0 17 7 17 16s-7 17-17 17h-166c-9 0-17-7-17-17s8-16 17-16z m0 116h166c10 0 17 8 17 17s-7 17-17 17h-166c-9 0-17-8-17-17s8-17 17-17z m0-233h400c9 0 16 7 16 17s-7 16-16 16h-400c-9 0-17-7-17-16s8-17 17-17z" horiz-adv-x="1000" />

<glyph glyph-name="gears" unicode="&#xe80a;" d="M730 577c-30 30-70 46-112 46-43 0-82-17-112-47-30-30-46-70-46-113 0-6 6-12 12-12 7 0 12 6 12 12 0 36 14 70 39 96 25 25 59 39 95 40 36 0 69-14 95-39 26-25 40-59 40-95 0-36-13-69-38-95-26-26-59-40-95-40-7 0-12-6-12-12s5-12 12-12c42 0 82 17 112 47 29 30 46 70 45 113s-17 82-47 111z m242-180l-37 15c6 35 6 70 0 105l37 16c11 4 20 13 24 24 5 11 5 23 0 34l-21 51c-4 11-13 20-24 24-11 5-23 5-34 0l-38-15c-20 28-45 53-74 74l15 37c10 23-1 49-24 59l-51 21c-22 9-49-1-58-24l-16-38c-35 6-70 6-105 0l-15 38c-5 11-13 19-24 24-11 5-24 5-35 0l-50-21c-12-5-20-13-25-24-4-11-4-24 0-35l16-37c-29-21-54-46-74-74l-38 15c-11 5-23 5-34 0-11-4-20-13-24-24l-22-51c-9-23 2-49 25-58l46-20c6-2 14 1 16 7 3 6 0 13-6 15l-47 20c-11 4-16 16-11 27l21 50c4 11 16 16 27 12l46-20c6-2 12 0 15 5 22 32 49 59 81 81 5 3 7 9 5 15l-20 46c-2 5-2 11 0 16s6 9 11 11l51 21c5 2 11 2 16 0s9-6 11-11l20-47c2-5 8-8 13-7 38 8 77 8 115 0 6-1 11 2 14 7l19 47c5 11 16 16 27 11l51-21c10-4 15-16 11-27l-19-46c-2-5-1-12 4-15 33-21 60-49 81-81 4-5 10-7 15-4l47 19c5 2 11 2 16 0s9-6 11-11l21-51c2-5 2-11 0-16s-6-9-11-11l-47-19c-5-3-8-8-7-14 7-38 7-77 0-115-1-6 2-11 7-13l47-20c10-4 15-16 11-27l-21-50c-5-11-17-16-27-12l-47 20c-5 2-11 0-15-5-21-32-49-59-81-81-5-3-6-9-4-15l19-46c2-5 2-11 0-16s-6-9-11-11l-51-21c-5-2-11-2-16 0s-9 6-11 11l-19 47c-3 6-10 9-16 6-6-2-9-10-6-16l19-46c5-11 13-20 24-25 6-2 12-3 17-3 6 0 12 1 18 3l51 21c11 5 19 14 24 25s4 23 0 34l-16 38c29 20 54 45 74 74l38-16c11-4 23-4 34 0s20 13 25 24l21 51c9 23-2 49-25 59z m-680-136c-62 0-113-52-113-114s51-114 113-114 114 51 114 114-51 114-114 114z m0-203c-49 0-89 40-89 89 0 49 40 89 89 89 50 0 90-40 90-89s-40-89-90-89z m256 145h-26c-6 24-15 46-28 67l19 19c7 7 10 16 10 25 0 10-3 19-10 26l-28 28c-7 7-16 11-26 11-10 0-18-4-25-11l-19-19c-21 13-43 22-67 28v27c0 19-16 36-36 36h-40c-20 0-36-17-36-36v-27c-24-6-46-15-67-28l-19 19c-6 7-15 11-25 11-10 0-19-4-26-11l-28-28c-7-7-10-16-10-26 0-9 3-18 10-25l19-19c-13-21-22-43-28-67h-26c-20 0-36-16-36-36v-40c0-20 16-36 36-36h27c6-24 15-46 28-67l-19-19c-7-7-11-15-11-25 0-10 4-19 11-26l28-28c7-7 16-10 25-10 10 0 19 3 26 10l19 19c21-13 43-22 66-28v-26c0-20 17-36 36-36h40c20 0 36 16 36 36v27c24 5 46 15 67 27l19-19c7-7 16-10 26-10s18 3 25 10l28 29c7 6 11 15 11 25 0 10-4 19-11 26l-19 19c13 20 22 43 28 66h26c20 0 36 16 36 36v40c0 20-16 36-36 36z m12-76c0-7-5-12-12-12h-36c-6 0-11-4-12-10-6-27-16-53-32-76-3-4-2-11 2-15l26-26c2-2 3-5 3-8 0-3-1-6-3-9l-29-28c-2-2-5-3-8-3-3 0-6 1-8 3l-26 26c-4 4-11 5-16 2-23-16-48-27-76-32-5-1-9-6-9-12v-37c0-6-6-11-12-11h-40c-6 0-12 5-12 11v37c0 6-4 11-9 12-28 5-53 16-76 32-2 1-5 2-7 2-3 0-6-2-9-4l-26-26c-2-2-5-4-8-4-3 0-6 2-8 4l-28 28c-3 2-4 5-4 8 0 3 1 7 4 9l26 26c4 4 4 10 1 15-16 23-26 49-31 76-2 6-7 10-12 10h-37c-6 0-12 5-12 12v40h0c0 6 6 12 12 12h37c6 0 11 4 12 9 5 28 16 53 31 76 4 5 3 12-1 16l-26 26c-2 2-4 5-4 8 0 3 2 6 4 8l28 29c2 2 5 3 8 3 3 0 6-1 9-3l26-27c4-4 10-4 15-1 23 16 49 26 76 32 6 1 10 6 10 11v37c0 7 5 12 11 12h40c7 0 12-5 12-12v-37c0-6 4-10 10-12 27-5 53-16 76-31 5-3 11-3 15 1l26 26c2 3 5 4 9 4 3 0 6-1 8-4l28-28c2-2 4-5 4-8 0-3-2-6-4-9l-26-25c-4-4-5-11-2-16 16-23 26-48 32-76 1-5 6-9 12-9h36c7 0 12-6 12-12v-40z" horiz-adv-x="1000" />

<glyph glyph-name="graph-up" unicode="&#xe80b;" d="M983-75v650h-200v-650h-50v517h-200v-517h-50v383h-200v-383h-50v233h-200v-233h-16c-9 0-17-8-17-17s8-16 17-16h16 200 50 200 50 200 50 200c10 0 17 7 17 16s-7 17-17 17z m-916 0v200h133v-200h-133z m250 0v350h133v-350h-133z m250 0v483h133v-483h-133z m250 0v617h133v-617h-133z m-683 461c3 0 6 1 8 2l605 349-38-83c-4-8 0-18 8-22 2-1 5-1 7-1 6 0 12 3 15 9l60 131c0 0 0 1 0 1 0 1 0 2 1 3 0 0 0 1 0 1 0 0 0 1 0 1 0 0 0 1 0 2 0 1 0 1-1 2 0 1 0 2 0 2 0 1 0 1-1 2 0 0 0 1 0 1 0 1-1 1-1 1 0 1-1 1-1 2-1 0-1 1-2 1 0 1-1 1-2 2 0 0-1 0-1 1 0 0-1 0-1 0 0 0-1 0-1 0-1 1-2 1-3 1 0 0-1 0-1 0l-143 14c-9 1-17-6-18-15-1-9 6-17 15-18l91-9-604-349c-8-4-11-14-7-22 4-6 9-9 15-9z" horiz-adv-x="1000" />

<glyph glyph-name="tomb" unicode="&#xe80c;" d="M761 654h-162v163c0 18-16 33-34 33h-130c-18 0-32-15-32-33v-163h-164c-18 0-32-14-32-32v-131c0-18 14-32 32-32h164v-270c22 6 64 9 98 9s76-3 98-9v270h162c18 0 33 14 33 32v131c0 18-15 32-33 32z m97-769c-10 139-167 248-358 248s-348-109-358-248c0-9 3-18 9-25 6-6 15-10 24-10h650c9 0 18 4 24 10 6 7 9 16 9 25z" horiz-adv-x="1000" />

<glyph glyph-name="tomb-border" unicode="&#xe80d;" d="M858-115c-8 112-112 208-260 238v336h163c18 0 33 14 33 32v131c0 18-15 32-33 32h-163v163c0 18-15 33-33 33h-130c-18 0-33-15-33-33v-163h-163c-18 0-32-14-32-32v-131c0-18 14-32 32-32h163v-336c-148-30-252-126-260-238 0-9 3-18 9-25 6-6 15-10 24-10h650c9 0 18 4 24 10 6 7 9 16 9 25z m-586 639v65h163c18 0 32 15 32 33v163h66v-163c0-18 14-33 32-33h163v-65h-163c-18 0-32-15-32-33v-359c-22 1-44 1-66 0v359c0 18-14 33-32 33h-163z m-57-609c71 202 499 202 571 0h-571z" horiz-adv-x="1000" />

<glyph glyph-name="users-gender" unicode="&#xe80e;" d="M925 74l-163 71c-3 2-8 6-11 13l108 0c2 0 47-5 83 11 14 6 24 17 28 32 4 14 1 29-7 42-31 44-104 160-106 277 0 2-7 201-204 203-29 0-55-5-80-14-5 13-13 27-25 41-34 39-89 58-165 58s-131-19-165-58c-39-45-36-100-35-109v-89c-10-12-16-28-16-44v-66c0-21 9-39 25-52 15-61 47-106 58-121v-55c0-16-9-31-23-39l-149-81c-48-26-78-77-78-132v-70h733 34 233v61c0 52-29 98-75 121z m-192-149h-700v37c0 43 24 83 61 103l149 81c25 14 40 40 40 68v67l-4 5c0 0-41 50-56 117l-2 7-6 4c-9 6-15 16-15 28v66c0 10 4 18 11 25l6 5v104l0 2c0 0-6 47 26 84 28 31 75 47 140 47 65 0 113-16 140-47 14-16 21-33 24-48 1-1 1-2 1-3 0-2 1-3 1-4 0-1 0-2 0-4 0 0 1-1 1-2 0-2 0-4 0-6 0 0 0 0 0-1 0-1 0-3 0-5 0 0 0 0 0 0 1-2 1-3 1-4 0-1 0-1 0-1-1-4-1-6-1-6l0-106 6-5c7-7 11-15 11-25v-66c0-15-10-28-24-32l-8-2-3-9c-11-34-27-66-47-95-5-7-10-13-14-18l-4-5v-68c0-5 0-9 1-13 0-1 0-2 0-2 1-4 2-7 3-10 0-1 0-2 1-2 1-4 3-7 4-11 0 0 1 0 1-1 2-4 5-8 8-12l4-4h1c5-6 12-11 19-15l160-79c40-20 64-60 64-105v-34z m234 0h-200v34c0 57-32 109-83 135l-115 57c3 6 4 14 1 21-4 11-15 19-27 19h-37c-1 1-1 3-2 4-1 2-2 4-2 6-1 4-2 8-2 12v56c4 5 8 10 12 16 21 29 37 61 49 96 24 11 39 34 39 61v66c0 16-6 32-17 44v89c1 4 2 18-1 35 21 9 46 13 71 13 165-1 170-163 171-170 2-126 79-249 112-295 2-4 3-9 2-14-1-3-3-8-9-10-28-13-66-9-68-9h-115c-10 0-20-5-26-15-5-9-6-20-1-29 5-11 14-25 29-32l163-71c34-17 56-52 56-91v-28z" horiz-adv-x="1000" />

<glyph glyph-name="user-comment-square-o" unicode="&#xe810;" d="M672 9v89c0 25-11 48-31 64-73 61-152 103-180 117v107c16 15 26 36 26 58v130c0 76-62 137-137 137h-28c-76 0-137-61-137-137v-130c0-22 9-43 26-58v-107c-29-14-107-56-181-117-19-15-30-39-30-64v-89c0-11 9-20 20-20h631c12 0 21 9 21 20z m-41 20h-591v69c0 13 6 25 16 33 79 65 164 108 181 116 9 4 14 13 14 23v125c0 7-3 13-9 17-11 7-17 19-17 32v130c0 53 44 96 97 96h28c53 0 96-43 96-96v-130c0-13-6-25-17-32-5-4-9-10-9-17v-125c0-10 6-19 15-23 16-8 102-51 181-116 9-8 15-20 15-33l0-69 0 0z m58 265l84 81h158c38 0 69 30 69 68v180c0 38-31 68-69 68h-294c-38 0-68-30-68-68v-180c0-38 30-68 68-68h18v-66c0-8 5-15 12-19 3-1 5-1 8-1 5 0 10 2 14 5z m-52 121c-15 0-28 13-28 28v180c0 15 13 28 28 28h294c16 0 29-13 29-28v-180c0-15-13-28-29-28h-166c-6 0-11-2-14-6l-56-53v39c0 11-9 20-20 20l-38 0 0 0z m44 133h206c12 0 21 9 21 20s-9 21-21 21h-206c-11 0-20-9-20-21 0-11 9-20 20-20z m207-73c11 0 20 8 20 20s-9 20-20 20h-207c-11 0-20-9-20-20s9-20 20-20h207z" horiz-adv-x="1000" />

<glyph glyph-name="home" unicode="&#xe82b;" d="M983 395l-151 151v175c0 32-26 58-58 58-31 0-57-26-57-58v-60l-113 113c-56 56-153 56-208 0l-379-379c-23-23-23-59 0-81 22-23 59-23 81 0l379 379c12 12 34 12 46 0l379-379c11-11 26-17 41-17 14 0 29 6 40 17 23 22 23 58 0 81z m-463 189c-11 11-29 11-40 0l-333-333c-5-6-8-13-8-20v-243c0-57 46-104 103-104h165v256h186v-256h165c57 0 103 47 103 104v243c0 7-2 14-8 20l-333 333z" horiz-adv-x="1000" />

<glyph glyph-name="search" unicode="&#xe82c;" d="M968-61l-238 248c61 72 95 164 95 259 0 223-181 404-404 404s-404-181-404-404 181-403 404-403c84 0 163 25 231 73l240-250c10-10 24-16 38-16 14 0 27 5 37 15 21 20 21 53 1 74z m-547 806c165 0 298-134 298-299s-133-298-298-298-298 134-298 298 134 299 298 299z" horiz-adv-x="1000" />

<glyph glyph-name="puzzle" unicode="&#xe82d;" d="M973 248c-19 24-44 36-77 36-17 0-34-3-50-9-16-6-29-13-39-20-9-8-20-14-31-20-12-6-22-9-31-9-18 0-36 9-53 27-14 15-21 39-21 71 0 38 5 87 14 147 1 1 1 5 2 13 1 7 2 14 3 20 1 6 2 10 2 11v1c-18-1-51-4-98-10-46-6-82-9-108-9-24 0-45 5-62 16-16 10-25 27-25 50 0 15 4 29 11 42 7 14 14 25 22 34 9 9 16 21 23 36 7 14 11 30 11 46 0 32-11 57-33 75-21 17-48 26-80 26-34 0-63-9-87-27-23-18-35-44-35-77 0-17 3-33 9-49 6-16 13-29 20-39 7-10 14-21 20-32 6-11 9-22 9-30 0-18-9-36-28-54-14-14-38-21-70-21-38 0-87 5-147 14-1 1-6 2-13 3-7 1-14 2-20 3-7 1-10 1-11 2v-616c0 0 0 0 1 0 1-1 2-1 2-1l8-1c3-1 9-2 16-3 8 0 13-1 17-2 60-10 109-14 147-14 32 0 56 7 70 21 19 17 28 35 28 53 0 9-3 19-9 30-6 12-13 23-20 32-7 10-14 23-20 39-6 16-9 33-9 50 0 33 12 58 35 77 24 18 53 27 86 27 33 0 60-9 81-27 22-18 33-42 33-74 0-16-4-32-11-46-7-15-14-27-23-36-8-9-15-20-22-34-7-14-11-28-11-43 0-23 9-39 25-50 17-10 38-16 62-16 19 0 38 1 59 3 21 2 44 5 70 8 25 4 45 6 58 7 5 1 11 1 20 1v3c0 15-3 39-9 69-6 31-10 54-10 69 0 50 22 75 66 75 15 0 29-4 43-11 14-7 25-14 34-23 9-8 21-15 36-23 14-7 30-10 46-10 32 0 56 11 74 32 18 22 27 49 27 82 0 33-9 62-27 85z" horiz-adv-x="1000" />

<glyph glyph-name="clock-circle-o" unicode="&#xe82e;" d="M500 850c-276 0-500-224-500-500s224-500 500-500 500 224 500 500-224 500-500 500z m0-913c-228 0-413 185-413 413s185 413 413 413 413-185 413-413-185-413-413-413z m185 457h-141v163c0 18-15 32-33 32h-22c-18 0-32-14-32-32v-218c0-18 14-32 32-32h196c18 0 32 14 32 32v22c0 18-14 33-32 33z" horiz-adv-x="1000" />

<glyph glyph-name="close-circle-o" unicode="&#xe82f;" d="M500 850c-276 0-500-224-500-500s224-500 500-500 500 224 500 500-224 500-500 500z m0-913c-228 0-413 185-413 413s185 413 413 413 413-185 413-413-185-413-413-413z m159 556l-16 16c-12 13-33 13-46 0l-97-97-97 97c-13 13-34 13-46 0l-16-16c-12-12-12-33 0-46l98-97-98-97c-12-13-12-34 0-46l16-16c12-12 33-12 46 0l97 98 97-98c13-12 34-12 46 0l16 16c13 12 13 33 0 46l-97 97 97 97c13 13 13 34 0 46z" horiz-adv-x="1000" />

<glyph glyph-name="pause-circle-o" unicode="&#xe830;" d="M435 502h-44c-12 0-21-9-21-22v-260c0-12 9-22 21-22h44c12 0 22 10 22 22v260c0 13-10 22-22 22z m65 348c-276 0-500-224-500-500s224-500 500-500 500 224 500 500-224 500-500 500z m0-913c-228 0-413 185-413 413s185 413 413 413 413-185 413-413-185-413-413-413z m109 565h-44c-12 0-21-9-21-22v-260c0-12 9-22 21-22h44c12 0 21 10 21 22v260c0 13-9 22-21 22z" horiz-adv-x="1000" />

<glyph glyph-name="check-circle-o" unicode="&#xe832;" d="M500 850c-276 0-500-224-500-500s224-500 500-500c276 0 500 224 500 500s-224 500-500 500z m0-913c-228 0-413 185-413 413s185 413 413 413 413-185 413-413-185-413-413-413z m165 528c-13 13-33 13-46 0l-151-151-88 88c-13 13-34 13-47 0l-16-15c-13-13-13-34 0-47l110-110c1-1 1-1 1-2l16-15c0 0 0 0 1-1l1-1c13-13 34-13 47 0l16 16c4 3 6 8 8 13l164 164c12 13 12 33 0 46l-16 15z" horiz-adv-x="1000" />

<glyph glyph-name="user-circle-o" unicode="&#xe833;" d="M495 350c-70 0-127 57-127 127s57 127 127 127c70 0 127-57 127-127 0-70-57-127-127-127z m-198-184v-56h396v56c0 78-64 142-142 142h-113c-78 0-141-64-141-142z m636 417c-86 161-254 263-438 263-194 0-372-114-452-291-8-19 0-40 18-49 18-8 40 0 48 18 69 151 220 249 386 249 155 0 297-85 371-220l-65-29 178-128 21 218-67-31z m-10-405c-18 9-40 1-49-17-72-144-218-234-379-234-151 0-287 78-363 206l63 32-182 121-13-218 66 33c89-153 250-247 429-247 189 0 359 105 444 275 9 18 2 40-16 49z" horiz-adv-x="1000" />

<glyph glyph-name="ban-circle-o" unicode="&#xe834;" d="M500 850c-275 0-500-225-500-500s225-500 500-500 500 225 500 500-225 500-500 500z m-400-500c0 220 180 400 400 400 90 0 175-30 245-85l-560-560c-55 70-85 155-85 245z m400-400c-90 0-175 30-245 85l560 560c55-70 85-155 85-245 0-220-180-400-400-400z" horiz-adv-x="1000" />

<glyph glyph-name="monitor-usd-search" unicode="&#xe835;" d="M987 8l-125 126c28 39 45 88 45 140 0 118-85 217-197 239v207c0 24-19 43-43 43h-625c-23 0-42-19-42-43v-510c0-23 19-42 42-42h270v-123h-70c-23 0-42-19-42-43 0-23 19-42 42-42h223c24 0 43 19 43 42 0 24-19 43-43 43h-68v123h47c39-82 123-138 219-138 52 0 100 16 140 44l125-125c25-22 51-9 59 0 17 17 17 42 0 59z m-904 243v427h542v-164c-116-18-205-119-205-240 0-8 0-16 1-23h-338z m580-136c-87 0-158 71-158 158s71 158 158 158 158-71 158-158-71-158-158-158z m-247 298c0 46-36 82-82 82-17 0-32 15-32 33s15 32 32 32c9 0 18-4 24-10 9-10 25-11 35-1s10 25 1 35c-10 10-22 18-35 22v14c0 14-11 25-25 25s-25-11-25-25v-14c-33-11-57-42-57-79 0-45 37-82 82-82 18 0 32-14 32-32s-14-32-32-32c-9 0-17 4-23 10-10 10-25 11-35 1s-11-25-1-35c9-10 21-18 34-22v-14c0-14 11-25 25-25s25 11 25 25v14c33 11 57 42 57 78z" horiz-adv-x="1000" />

<glyph glyph-name="diploma-2" unicode="&#xe836;" d="M920 800c-10 30-45 50-75 50-230 0-485 0-715 0-25 0-40-25-25-50 155-300-150-600-25-900 10-30 45-50 75-50 230 0 490 0 720 0 25 0 40 25 25 50-160 300 145 600 20 900z m-370-50c85 0 150-65 150-150 0-65-40-120-100-140v-110l-50 50-50-50v110c-55 20-100 75-100 140 0 85 70 150 150 150z m0-800h-300c-30 0-50 20-50 50s20 50 50 50h300c30 0 50-20 50-50s-20-50-50-50z m150 200h-450c-30 0-50 20-50 50 0 30 20 50 50 50h450c30 0 50-20 50-50 0-30-20-50-50-50z" horiz-adv-x="1000" />

<glyph glyph-name="diploma-3" unicode="&#xe839;" d="M893 814v0h-589c-59 0-108-48-108-107v-571h-196v-143c0-59 44-103 107-107h572c69 0 125 56 125 125v518h196v178c0 58-45 103-107 107z m-357-285c0-3-1-5-2-7-1-2-2-4-3-6-4-3-8-5-13-5-5 0-9 2-13 5-1 2-3 4-4 6-1 2-1 4-1 7 0 4 2 9 5 12 7 7 19 7 26 0 3-3 5-8 5-12z m-215 125h179c10 0 18-8 18-18 0-10-8-18-18-18h-179c-9 0-17 8-17 18 0 10 8 18 17 18z m0-108h18 125c10 0 18-8 18-17 0-10-8-18-18-18h-125-18c-9 0-17 8-17 18 0 9 8 17 17 17z m125-125c0-2 0-4-1-6-1-2-2-4-4-6-2-2-3-3-6-4-2-1-4-1-6-1-3 0-5 0-7 1-2 1-4 2-6 4-3 3-5 8-5 12 0 5 2 10 5 13 5 5 13 7 19 4 3-1 4-2 6-4 4-3 5-8 5-13z m-125 18h18 36c10 0 18-8 18-18s-8-17-18-17h-36-18c-9 0-17 8-17 17s8 18 17 18z m-213-518c-42 3-72 33-72 72v107h160 375v-107c0-7 1-13 2-20 0 0 0-1 0-1 2-6 3-12 5-17 1-1 1-1 1-2 2-5 5-10 7-15 1-1 1-2 2-2 3-5 6-9 9-13 1 0 1-1 2-2l-491 0z m196 286c0 10 8 18 17 18h18 18c10 0 18-8 18-18 0-10-8-18-18-18h-18-18c-9 0-17 8-17 18z m89 0c0 5 2 9 5 13 5 5 13 6 20 4 2-1 4-3 5-4 4-4 6-8 6-13 0-2-1-4-2-7-1-2-2-4-4-5-1-2-3-3-5-4-3-1-5-2-7-2-5 0-10 2-13 6-2 1-3 3-4 5-1 3-1 5-1 7z m53 0c0 10 8 18 18 18h54c10 0 18-8 18-18 0-10-8-18-18-18h-54c-10 0-18 8-18 18z m233 89h-358c-9 0-17 8-17 18 0 10 8 18 17 18h358c9 0 17-8 17-18 0-10-8-18-17-18z m0 108h-197c-10 0-18 8-18 17s8 18 18 18h197c9 0 17-8 17-18s-8-17-17-17z m0 107h-108c-9 0-17 8-17 18 0 9 8 17 17 17h108c9 0 17-8 17-17 0-10-8-18-17-18z m285 53h-160v143c0 6 0 11 1 16 1 3 2 6 3 8 1 2 1 4 2 6 2 4 4 7 7 10 0 1 0 1 0 1 14 18 36 27 58 30 3 0 6 1 9 1 40 0 80-25 80-72v-143z" horiz-adv-x="1000" />

<glyph glyph-name="diploma" unicode="&#xe83a;" d="M869-28h-598c18-38 24-88 13-122h585c27 0 49 27 49 62 1 33-22 60-49 60z m-669 633c4 32 8 62 10 90l-38 0c6-38 5-68-2-90h30z m-52 130l63-1c-8 104-44 115-45 116-58 0-82-77-83-121-2-36-3-107 39-124 1 0 24 22 7 106 0 6-3 24 19 24z m87-723h562c-6 115 19 231 43 343 34 158 66 309 18 461-6 21-23 34-41 34h-593c20-33 27-78 27-131 3-61-43-277-43-277-35-172-75-368-38-519 12-48 33-73 65-73h0c3 0 6 0 10 9 13 29 0 94-24 120-9 9-7 33 14 33z m124 698h421c11 0 20-9 20-20s-9-20-20-20h-421c-11 0-20 8-20 20 0 11 9 20 20 20z m-14-178h421c11 0 20-8 20-20s-9-20-20-20h-421c-11 0-20 9-20 20s9 20 20 20z m-36-177h420c12 0 20-9 20-20s-8-20-20-20h-420c-11 0-20 8-20 20s9 20 20 20z m-18-178h265c11 0 20-8 20-20s-10-20-20-20h-265c-11 0-20 9-20 20s9 20 20 20z" horiz-adv-x="1000" />

<glyph glyph-name="user-settings" unicode="&#xe83b;" d="M500 497c-65 0-117-53-117-118s52-117 117-117 117 53 117 117-52 118-117 118z m476-59l-78 12c-10 39-25 76-46 110l45 63c8 12 7 28-3 38l-83 83c-10 10-26 11-38 3l-63-45c-34 21-71 36-110 46l-12 78c-3 14-15 24-29 24h-118c-14 0-26-10-28-24l-13-78c-39-10-76-25-110-46l-63 45c-12 8-28 7-38-3l-83-83c-10-10-11-26-3-38l45-63c-21-34-36-71-46-110l-77-12c-15-3-25-15-25-29v-118c0-14 10-26 25-28l77-13c10-39 25-76 46-110l-45-63c-8-12-7-28 3-38l83-83c10-10 26-11 38-3l63 45c34-21 71-36 110-46l13-78c2-14 14-24 28-24h118c14 0 26 10 29 24l12 78c39 10 76 25 110 46l63-45c12-8 28-7 38 3l83 83c10 10 11 26 3 38l-45 63c21 34 36 71 46 110l78 13c14 2 24 14 24 28v118c0 14-10 26-24 29z m-476-410c-178 0-322 144-322 322s144 322 322 322 322-144 322-322-144-322-322-322z m135 241c-32-40-80-65-135-65-55 0-103 25-135 65-28-25-49-58-60-95 48-53 117-88 195-88s147 35 195 88c-11 37-32 70-60 95z" horiz-adv-x="1000" />

<glyph glyph-name="user-group-salarymen" unicode="&#xe83c;" d="M983 254c-56 46-116 77-128 83-2 0-3 2-3 3v87c11 8 19 20 19 34v91c0 45-37 81-82 81h-10-9c-45 0-82-36-82-81v-91c0-14 8-26 19-34v-87c0-1-1-3-3-3-7-4-34-17-66-38 32-17 83-48 131-87 17-14 28-33 32-54h199v62c-1 13-6 26-17 34z m-687 83c-2 0-3 2-3 3v87c11 8 19 20 19 34v91c0 45-37 81-82 81h-10-10c-45 0-81-36-81-81v-91c0-14 7-26 18-34v-87c0-1-1-3-2-3-12-6-73-37-129-83-10-9-16-21-16-34v-62h199c4 21 15 40 32 54 48 39 99 70 131 87-33 21-59 34-66 38z m447-156c-67 55-139 91-154 98-1 1-2 3-2 5v104c13 9 22 23 22 40v108c0 54-44 97-98 97h-11-12c-54 0-97-43-97-97v-108c0-17 8-32 22-40v-104c0-2-1-4-3-5-15-7-87-43-154-98-12-10-19-25-19-40v-74h228l23 103c-46 63 3 66 12 67l0 0 0 0c8 0 57-4 11-67l23-103h228v74c0 15-7 30-19 40z" horiz-adv-x="1000" />

<glyph glyph-name="star" unicode="&#xe83d;" d="M999 465c-4 11-13 18-24 20l-311 45-138 279c-10 21-42 21-52 0l-138-279-311-45c-11-2-20-9-24-20-3-11 0-22 8-30l225-218-53-307c-1-11 3-22 12-29 9-6 21-7 31-2l276 145 276-145c10-5 22-4 31 2 9 7 14 18 12 29l-53 307 225 218c8 8 11 19 8 30z" horiz-adv-x="1000" />

<glyph glyph-name="star-o" unicode="&#xe83e;" d="M999 464c-4 11-13 19-24 20l-309 45-138 280c-5 10-15 16-26 16-11 0-21-6-26-16l-138-280-313-45c-11-1-20-9-24-20-3-10 0-22 8-30l227-218-53-307c-1-11 3-22 12-29 9-6 21-7 31-2l276 145 276-145c10-5 22-4 31 2 9 7 13 18 12 29l-53 308 223 217c8 8 11 20 8 30z m-283-216c-7-7-10-17-8-26l45-264-237 124c-5 3-9 4-14 4-5 0-9-1-14-4l-237-124 45 264c2 9-1 19-8 26l-195 187 268 38c10 2 18 8 22 16l119 241 119-241c4-8 12-14 22-16l265-38-192-187z" horiz-adv-x="1000" />

<glyph glyph-name="checking" unicode="&#xe83f;" d="M312 552h-283c-16 0-29-13-29-29s13-30 29-30h283c16 0 29 13 29 30s-13 29-29 29z m0-251h-283c-16 0-29-13-29-29s13-30 29-30h283c16 0 29 13 29 30s-13 29-29 29z m397-197c-11 11-30 11-41 0l-105-105-42 42c-12 12-30 12-42 0-11-11-11-30 0-41l63-63c6-6 13-9 21-9 8 0 15 3 21 9l125 126c11 11 11 30 0 41z m-397-54h-283c-16 0-29-13-29-29s13-30 29-30h283c16 0 29 13 29 30s-13 29-29 29z m679 579l-134 134c-6 6-13 9-21 9-8 0-15-3-20-9l-135-134c0 0 0 0 0 0l-202-202c-5-6-8-13-8-21v-134c0-17 13-30 29-30h135c7 0 15 3 20 9l202 202c0 0 0 0 0 0l134 134c6 6 9 13 9 21 0 8-3 15-9 21z m-369-328h-93v93l173 172 93-93-173-172z m214 214l-17 17-76 76 93 93 93-93-93-93z" horiz-adv-x="1000" />

<glyph glyph-name="building" unicode="&#xe840;" d="M983-50h-50v883c0 10-6 17-16 17h-834c-10 0-16-7-16-17v-883h-50c-10 0-17-7-17-17v-66c0-10 7-17 17-17h966c10 0 17 7 17 17v66c0 10-7 17-17 17z m-883 867h800v-867h-250v183c0 10-7 17-17 17h-133-133c-10 0-17-7-17-17v-183h-250v867z m283-867v167h100v-167h-100z m134 167h100v-167h-100v167z m450-234h-934v34h50 284 133 133 284 50v-34z m-650 884h-134c-10 0-16-7-16-17v-100c0-10 6-17 16-17h134c10 0 16 7 16 17v100c0 10-6 17-16 17z m-17-100h-100v66h100v-66z m17-84h-134c-10 0-16-6-16-16v-100c0-10 6-17 16-17h134c10 0 16 7 16 17v100c0 10-6 16-16 16z m-17-100h-100v67h100v-67z m133-33h134c10 0 16 7 16 17v100c0 10-6 16-16 16h-134c-10 0-16-6-16-16v-100c0-10 6-17 16-17z m17 100h100v-67h-100v67z m233-100h134c10 0 16 7 16 17v100c0 10-6 16-16 16h-134c-10 0-16-6-16-16v-100c0-10 6-17 16-17z m17 100h100v-67h-100v67z m-267-283h134c10 0 16 6 16 16v100c0 10-6 17-16 17h-134c-10 0-16-7-16-17v-100c0-10 6-16 16-16z m17 100h100v-67h-100v67z m233-100h134c10 0 16 6 16 16v100c0 10-6 17-16 17h-134c-10 0-16-7-16-17v-100c0-10 6-16 16-16z m17 100h100v-67h-100v67z m-383 33h-134c-10 0-16-7-16-17v-100c0-10 6-16 16-16h134c10 0 16 6 16 16v100c0 10-6 17-16 17z m-17-100h-100v67h100v-67z m133 333h134c10 0 16 7 16 17v100c0 10-6 17-16 17h-134c-10 0-16-7-16-17v-100c0-10 6-17 16-17z m17 100h100v-66h-100v66z m233-100h134c10 0 16 7 16 17v100c0 10-6 17-16 17h-134c-10 0-16-7-16-17v-100c0-10 6-17 16-17z m17 100h100v-66h-100v66z m-300-550h200c10 0 17 7 17 17 0 10-7 17-17 17h-200c-10 0-17-7-17-17 0-10 7-17 17-17z" horiz-adv-x="1000" />

<glyph glyph-name="medal" unicode="&#xe841;" d="M869 399l-49 67c-3 4-3 10 0 14l48 67c4 7 2 15-5 19l-73 39c-4 2-7 7-6 13l14 81c1 8-4 15-12 15l-83 3c-5 1-10 4-11 9l-23 80c-2 7-10 11-17 8l-76-33c-5-2-11 0-14 3l-55 62c-6 5-14 5-19 0l-55-63c-3-4-9-5-14-3l-76 32c-7 2-15-1-17-9l-22-79c-1-5-6-9-11-10l-83-4c-7-1-13-8-11-15l15-81c1-6-2-11-7-13l-72-40c-6-4-8-13-4-19l49-66c3-5 3-11 0-15l-48-67c-4-7-2-15 5-19l72-39c5-2 8-7 7-13l-14-81c-1-8 4-15 12-15l83-3c5-1 10-4 11-9l23-80c2-7 10-11 17-8l76 33c5 2 11 1 14-3l56-62c5-5 13-5 18 1l55 62c3 4 9 5 14 3l76-31c7-3 15 1 17 8l22 80c1 5 6 8 11 9l83 4c7 1 13 8 11 15l-14 82c-1 5 1 10 6 13l72 40c7 3 8 12 4 18z m-369-153c-123 0-224 101-224 224s101 225 224 225 225-101 225-225c0-123-101-224-225-224z m202-145c-12-12-28-19-46-19-6 0-13 1-18 2l-53 16-41-37c-1-1-3-2-4-3l65-203c3-8 12-9 17-3l47 61c2 3 7 4 10 3l74-22c7-2 14 5 12 12l-63 193z m-286-1l-53-16c-6-2-12-2-19-2-17 0-34 7-46 19l-62-193c-2-7 4-14 11-12l75 22c3 1 7 0 9-3l48-61c4-6 14-5 16 2l66 203c-2 1-3 3-5 4l-40 37z m217 426l-84 6-32 79c-6 15-27 15-33 0l-32-79-85-6c-16-1-22-21-10-31l65-55-20-82c-4-16 13-28 26-20l72 45 72-45c14-8 31 4 27 20l-21 82 65 55c13 10 6 30-10 31z" horiz-adv-x="1000" />

<glyph glyph-name="balance" unicode="&#xe842;" d="M520 67v657h254c0 0-138-376-135-382 8-82 79-145 164-145 85 0 154 63 164 145 3 6-135 382-135 382h24v42h-336v63h-41v-63h-336v-42h24c0 0-136-370-136-374 4-86 78-153 165-153s161 67 167 153c0 3-138 374-138 374h254v-657h-457v-196h957v196h-459z m283 172c-59 0-108 40-122 92h244c-14-52-62-92-122-92z m-118 132l119 315 116-315h-235z m-488-132c-59 0-108 40-123 92h245c-14-52-63-92-122-92z m-116 132l118 315 116-315h-234z m859-460h-878v114h878v-114z" horiz-adv-x="1000" />

<glyph glyph-name="libra" unicode="&#xe844;" d="M1000 159c0 1 0 1 0 1 0 0 0 0 0 0 0 1 0 1 0 1 0 0 0 1 0 1 0 0 0 0 0 1 0 0 0 0 0 0 0 1 0 1-1 1 0 0 0 1 0 1 0 0 0 0 0 1 0 0 0 0 0 1 0 0 0 0 0 0l-172 377v49h1c19 0 34 15 34 34v2c0 17-12 30-28 33l-283 46v29c11 12 17 28 17 45 0 38-30 68-68 68s-68-30-68-68c0-17 7-33 17-45v-28l-283-47c-16-3-28-16-28-33v-2c0-19 15-34 34-34h1v-49l-171-377c-1 0-1 0-1 0 0-1 0-1 0-1 0-1 0-1 0-1 0 0 0-1 0-1 0 0-1 0-1-1 0 0 0 0 0 0 0-1 0-1 0-1 0 0 0-1 0-1 0 0 0 0 0-1 0 0 0 0 0 0 0 0 0 0 0-1 0 0 0 0 0 0 1-67 84-119 189-119s188 52 189 119c0 0 0 0 0 0 0 1 0 1 0 1 0 0 0 0 0 0 0 1 0 1 0 1 0 0 0 1 0 1 0 0 0 0 0 1 0 0 0 0 0 0 0 1 0 1-1 1 0 0 0 1 0 1 0 0 0 0 0 1 0 0 0 0 0 1 0 0 0 0 0 0l-172 377v49h244v-352c-10-6-17-17-17-29v-239l-103-32c-21-7-35-26-35-48v-27c0-9 7-16 16-16h380c9 0 16 7 16 16v27c0 22-14 41-35 48l-103 32v239c0 12-7 23-17 29v352h244v-49l-171-377c0 0-1 0-1 0 0-1 0-1 0-1 0-1 0-1 0-1 0 0 0-1 0-1 0 0 0 0-1-1 0 0 0 0 0 0 0-1 0-1 0-1 0 0 0-1 0-1 0 0 0 0 0-1 0 0 0 0 0 0 0 0 0 0 0-1 0 0 0 0 0 0 1-67 84-119 189-119s188 52 189 119c0 0 0 0 0 0z m-811 342l148-325h-296l148 325z m0-428c-75 0-140 31-154 71h308c-14-40-79-71-154-71z m347 139v-235h-72v235c0 0 1 1 1 1h70c0 0 1-1 1-1z m-54 33v472c6-2 12-3 18-3s13 1 18 3v-472h-36z m18 573c20 0 36-16 36-36s-16-36-36-36-36 16-36 36 16 36 36 36z m-328-193c-1 0-1 1-1 2v2c0 1 0 1 1 1l277 46v-51h-277z m502-732v-11h-348v11c0 8 5 15 13 17l112 35h98l112-35c8-2 13-9 13-17z m-123 782l278-45c0 0 0 0 0-1v-2c0-1 0-2-1-2h-277v50z m260-174l148-325h-296l148 325z m0-428c-75 0-140 31-154 71h308c-14-40-79-71-154-71z" horiz-adv-x="1000" />

<glyph glyph-name="file" unicode="&#xe845;" d="M708 483h-416c-9 0-17-7-17-16s8-17 17-17h416c10 0 17 7 17 17s-7 16-17 16z m-416 100h166c10 0 17 8 17 17s-7 17-17 17h-166c-9 0-17-8-17-17s8-17 17-17z m416-233h-416c-9 0-17-7-17-17s8-16 17-16h416c10 0 17 7 17 16s-7 17-17 17z m0-133h-416c-9 0-17-8-17-17s8-17 17-17h416c10 0 17 8 17 17s-7 17-17 17z m0-134h-416c-9 0-17-7-17-16s8-17 17-17h416c10 0 17 8 17 17s-7 16-17 16z m-59 767h-541v-1000h784v757l-243 243z m9-57l177-176h-177v176z m-516-910v934h483v-234h233v-700h-716z" horiz-adv-x="1000" />

<glyph glyph-name="files" unicode="&#xe846;" d="M750 433h-417c-9 0-16-7-16-16s7-17 16-17h417c9 0 17 7 17 17s-8 16-17 16z m-417 100h167c9 0 17 8 17 17s-8 17-17 17h-167c-9 0-16-8-16-17s7-17 16-17z m417-233h-417c-9 0-16-7-16-17s7-16 16-16h417c9 0 17 7 17 16s-8 17-17 17z m0-133h-417c-9 0-16-8-16-17s7-17 16-17h417c9 0 17 8 17 17s-8 17-17 17z m0-134h-417c-9 0-16-7-16-16s7-17 16-17h417c9 0 17 7 17 17s-8 16-17 16z m67 574v243h-717v-917h83v-83h717v674l-83 83z m-150 103l150-150 26-27h-176v177z m-534-743v850h650v-177l-126 127h-474v-800h-50z m84-84v50 800h416v-233h234v-617h-650z" horiz-adv-x="1000" />

<glyph glyph-name="users-relation" unicode="&#xe847;" d="M84 560c0 65 54 119 119 119 66 0 120-54 120-119 0-66-54-120-120-120-65 0-119 54-119 120z m713-120c66 0 119 54 119 120 0 65-53 119-119 119-66 0-120-54-120-119 0-66 54-120 120-120z m203-135v-124l-1 0-8-4c-4-2-65-32-171-34-53-71-174-122-314-122-140 0-260 51-313 123-24 1-49 3-75 7l-33 6c-24 5-49 11-76 20l-9 2 0 2v124c0 71 48 130 114 148 23-22 55-36 89-36 35 0 66 14 90 36 27-8 51-22 70-42 44 12 92 19 143 19 47 0 92-6 133-16 19 18 42 32 68 39 24-22 55-36 90-36 34 0 66 14 89 36 51-14 92-53 107-103l6-31c1-5 1-9 1-14z m-211-161c-24 0-50 3-78 7l-33 6c-24 5-49 11-76 20l-8 2-1 2v124c0 33 11 63 28 88-36 7-74 12-114 12-45 0-88-6-126-15 8-12 14-25 19-40l6-31c1-5 1-9 1-14v-124l-1 0-8-4c-4-2-66-32-173-34 52-57 159-97 282-97 122 0 229 40 282 98z" horiz-adv-x="1000" />

<glyph glyph-name="documents" unicode="&#xe848;" d="M638 409c9 0 16 7 16 16 0 9-7 17-16 17h-117c-9 0-16-8-16-17s7-16 16-16h117z m-512 225h512c9 0 16 8 16 17 0 9-7 16-16 16h-512c-9 0-17-7-17-16 0-9 8-17 17-17z m0-150h512c9 0 16 7 16 16 0 9-7 17-16 17h-512c-9 0-17-8-17-17 0-9 8-16 17-16z m0-75h346c9 0 16 7 16 16s-7 17-16 17h-346c-9 0-17-8-17-17s8-16 17-16z m512-268h-166c-9 0-17-7-17-16 0-9 8-16 17-16h166c9 0 16 7 16 16 0 9-7 16-16 16z m0 75h-308c-9 0-16-7-16-16 0-9 7-16 16-16h308c9 0 16 7 16 16 0 9-7 16-16 16z m-302 134c0-9 7-16 16-16h286c9 0 16 7 16 16 0 9-7 17-16 17h-286c-9 0-16-8-16-17z m-210-316h512c9 0 16 7 16 16 0 9-7 16-16 16h-512c-9 0-17-7-17-16s8-16 17-16z m0 300h179c9 0 16 7 16 16 0 9-7 17-16 17h-179c-9 0-17-8-17-17 0-9 8-16 17-16z m858 513h-731c-9 0-16-7-16-16v-32h-221c-9 0-16-7-16-16v-914c0-9 7-16 16-16h731c9 0 17 7 17 16v32h220c9 0 16 7 16 16v914c0 9-7 16-16 16z m-253-961h-698v880h698v-880z m236 48h-203v148h110c9 0 17 7 17 16s-8 16-17 16h-110v43h110c9 0 17 7 17 16s-8 16-17 16h-110v43h110c9 0 17 7 17 16s-8 16-17 16h-110v43h14c9 0 16 7 16 16 0 9-7 16-16 16h-14v43h110c9 0 17 7 17 16 0 9-8 17-17 17h-110v42h110c9 0 17 7 17 16 0 9-8 17-17 17h-110v42h110c9 0 17 7 17 16 0 9-8 17-17 17h-110v42h110c9 0 17 7 17 16 0 9-8 17-17 17h-110v42h110c9 0 17 8 17 17 0 9-8 16-17 16h-110v68c0 9-8 16-17 16h-478v15h698v-880z m-841 25h320c9 0 16 7 16 16s-7 16-16 16h-320c-9 0-17-7-17-16 0-9 8-16 17-16z m0 225h144c9 0 17 7 17 16 0 9-8 16-17 16h-144c-9 0-17-7-17-16 0-9 8-16 17-16z m0-75h287c9 0 16 7 16 16 0 9-7 16-16 16h-287c-9 0-17-7-17-16 0-9 8-16 17-16z" horiz-adv-x="1000" />

<glyph glyph-name="dollar" unicode="&#xe84a;" d="M500 850c-11 0-21-9-21-21v-958c0-12 10-21 21-21s21 9 21 21v958c0 12-9 21-21 21z m0-83c-149 0-271-94-271-209 0-79 57-150 149-186 3-1 5-1 8-1 8 0 16 5 19 13 4 11-1 23-12 27-75 29-122 86-122 147 0 92 103 167 229 167s229-75 229-167c0-11 10-20 21-20 12 0 21 9 21 20 0 115-122 209-271 209z m122-439c-11 4-23-1-27-12-4-11 1-23 12-27 75-29 122-86 122-147 0-92-103-167-229-167s-229 75-229 167c0 11-9 21-21 21s-21-10-21-21c0-115 122-209 271-209s271 94 271 209c0 79-57 150-149 186z m0 0c-61 24-90 34-120 44-27 9-55 18-109 39-11 4-23-1-27-12s1-23 12-27c55-21 83-30 111-40 30-9 58-19 118-43 2-1 5-1 8-1 8 0 16 5 19 13 4 10-1 22-12 27z" horiz-adv-x="1000" />

<glyph glyph-name="dollar-circle" unicode="&#xe84b;" d="M500 850c-276 0-500-224-500-500 0-276 224-500 500-500s500 224 500 500c0 276-224 500-500 500z m0-950c-248 0-450 202-450 450s202 450 450 450 450-202 450-450-202-450-450-450z m145 425c-25 21-67 40-125 56v220c27-1 50-8 67-21 22-17 34-41 36-74 0-9 2-16 8-21 4-5 10-7 16-7 7 0 12 2 16 7 6 5 8 12 8 21 0 40-14 73-41 98-28 25-65 38-110 40v42c0 13-7 20-21 20-13 0-19-7-19-20v-42c-46-1-84-15-113-40-32-27-47-64-47-110 0-39 14-70 42-94 25-22 65-39 118-52v-236c-38 4-67 14-88 31-27 23-40 57-40 102 0 9-2 16-7 20-4 5-9 7-15 7s-12-2-16-7c-5-4-7-11-7-20 0-63 19-109 56-138 27-21 66-33 117-38v-57c0-14 6-20 19-20 14 0 21 6 21 20v56c47 4 87 19 118 46 34 30 51 67 51 112 0 42-15 75-44 99z m-165 67c-40 10-69 24-86 42-17 17-25 39-25 66 0 32 12 57 37 76 21 15 45 24 74 26v-210z m118-251c-22-16-48-26-78-29v224c45-12 76-25 92-40 18-16 27-41 27-75 0-33-14-60-41-80z" horiz-adv-x="1000" />

<glyph glyph-name="magnifier" unicode="&#xe84d;" d="M976-118l-280 292c71 72 116 170 116 280 0 218-178 396-397 396s-396-178-396-396 177-397 396-397c96 0 184 34 253 91l281-292c4-4 9-6 14-6 4 0 9 2 13 5 7 7 7 19 0 27z m-561 213c-198 0-359 161-359 359s161 358 359 358 359-161 359-358-161-359-359-359z" horiz-adv-x="1000" />

<glyph glyph-name="wallet" unicode="&#xe84e;" d="M958 415h-24v165c0 39-31 69-67 69h-19v110c0 39-28 70-63 70 0 0-2 0-4 0l-696-180c-1 0-1 0-1 0-35-2-62-32-62-69v-639c0-39 30-70 67-70h778c38 0 69 31 69 70v169h22c13 0 21 8 21 20v265c0 12-11 20-21 20z m-169 375c10-2 20-14 20-31v-110h-561l541 141z m106-849c0-17-12-31-28-31h-778c-16 0-29 14-29 31v639c0 16 13 31 29 31h776c16 0 28-15 28-31v-165h-202c-85 0-152-67-152-152 0-86 69-153 152-153h204v-169z m43 207h-247c-61 0-111 51-111 112s51 112 111 112h247v-224z m-269 110c0-12 10-20 20-20h19c10 0 20 8 20 20 0 13-10 21-20 21h-18c-13 0-21-8-21-21z" horiz-adv-x="1000" />

<glyph glyph-name="user-network" unicode="&#xe850;" d="M234 850c-80 0-146-66-146-146 0-81 66-147 146-147 81 0 147 66 147 147 0 80-66 146-147 146z m580-243c-12 12-30 12-42 0l-8-8v46c0 48-40 88-88 88h-178c-16 0-29-13-29-29s13-30 29-30h178c16 0 29-13 29-29v-46l-8 8c-12 12-30 12-42 0s-11-30 0-41l59-59c11-12 30-11 41 0l59 59c11 11 11 30 0 41z m-374-577h-176c-16 0-30 13-30 29v46l9-8c11-12 30-12 41 0s12 30 0 41l-58 59c-3 3-6 5-10 6-11 5-24 2-32-6l-58-59c-12-11-12-30 0-41s30-12 41 0l9 8v-46c0-48 39-88 88-88h176c16 0 29 13 29 29 0 17-13 30-29 30z m324 410c-81 0-149-66-149-147 0-80 68-146 149-146 80 0 148 66 148 146 0 81-68 147-148 147z m-382 122c-37-39-90-64-148-64s-110 25-147 64c-53-43-87-108-87-181v-88c0-16 13-29 29-29h411c16 0 29 13 29 29v88c0 73-34 138-87 181z m531-410c-37-39-91-64-149-64s-112 25-150 64c-52-43-87-108-87-181v-92c0-16 13-29 30-29h414c16 0 29 13 29 29v92c0 73-34 138-87 181z" horiz-adv-x="1000" />

<glyph glyph-name="star-o-slash" unicode="&#xe853;" d="M999 464c-4 11-13 19-24 20l-152 22-52-51 137-20-192-187c-7-7-10-17-9-26l46-264-237 124c-5 3-9 4-14 4s-9-1-14-4l-188-99-104-103c9-6 20-7 30-2l276 145 276-145c10-5 22-4 31 2 9 7 13 18 12 29l-53 308 223 217c8 8 11 20 8 30z m-702-242c1 9-2 19-9 26l-195 187 268 38c10 2 18 8 22 16l119 241 106-216 44 44-124 251c-5 10-15 16-26 16s-21-6-27-16l-138-280-312-45c-11-1-20-9-24-20-3-10 0-22 8-30l227-218-15-89 71 72 5 23z m639 505l-831-831c-9-9-24-9-33 0l-5 6c-10 9-10 24 0 33l831 831c9 9 24 9 33 0l5-6c9-9 9-24 0-33z" horiz-adv-x="1000" />

<glyph glyph-name="search-gear" unicode="&#xe891;" d="M918 202l68 25c8 3 12 12 9 20l-41 108c-1 4-4 7-8 8-3 2-7 2-11 1l-68-25c-11-5-23-2-31 7-9 9-11 21-5 32l29 66c4 7 1 16-7 20l-105 48c-8 3-17 0-20-8l-30-65c-5-11-16-18-28-17-12 0-22 7-26 19l-25 67c-3 8-12 12-20 9l-108-41c-4-1-7-4-9-7-1-4-1-8 0-12l25-67c5-12 2-24-7-32-9-8-21-10-32-5l-66 30c-1 0-2 0-3 1 50 33 89 84 106 147 36 135-45 275-181 311-66 17-134 8-193-27-59-34-101-89-118-154-32-119 27-241 134-294 0 0 0 0-1 0l-18-69c-19-10-33-27-39-48l-46-173c-5-20-2-40 8-58 10-17 27-30 46-35 7-2 13-3 20-3 13 0 26 4 38 11 17 10 30 26 35 46l46 173c5 21 1 43-10 61l18 69c0 0 0 0 0 1 5-1 10-1 15-1 43 0 85 12 122 32l-12-26c-3-8 0-17 8-20 7-4 16 0 20 7l6 15 52-24c22-10 47-6 65 11 18 16 24 41 15 64l-20 53 81 30 20-53c8-23 29-38 53-39 25-1 46 13 56 35l24 52 78-36-24-52c-10-22-6-47 11-65 16-18 41-23 64-15l53 20 30-80-53-20c-23-9-38-29-39-54-1-24 13-46 35-56l52-23-36-78-52 23c-22 10-47 6-65-10-18-17-23-42-15-65l20-53-80-30-20 53c-9 23-29 38-54 39-24 1-46-12-56-35l-24-51-77 35 23 52c10 22 6 47-10 65-17 18-42 24-65 15l-53-19-30 80 54 20c23 8 37 29 38 53 1 25-12 46-34 56l-52 24 6 14c4 8 1 17-7 20-8 4-16 1-20-7l-13-28c-3-8 0-17 8-20l65-30c11-5 18-15 17-28 0-12-7-22-19-26l-67-25c-8-3-12-12-9-20l40-108c2-4 5-7 8-8 4-2 8-2 12-1l67 25c12 5 24 2 32-7 8-9 10-21 5-32l-30-66c-1-4-2-8 0-11s4-7 8-9l105-48c7-3 16 0 20 8l30 65c5 11 15 18 27 17 13 0 22-7 27-19l25-67c1-4 4-7 8-9 2-1 4-1 6-1 2 0 4 0 5 1l109 40c8 3 12 12 9 20l-26 67c-4 12-1 24 8 32s21 10 32 5l66-30c7-3 16 0 19 8l49 105c1 4 1 8 0 11-1 4-4 7-8 9l-65 30c-11 5-18 15-18 27 1 13 8 23 19 27z m-712 17l-45-173c-7-24-32-39-56-33-12 3-21 11-28 21-6 11-7 23-4 35l46 173c0 3 1 5 2 7 3-18 17-34 36-39 5-1 9-2 13-2 15 0 28 7 38 18-1-3-1-5-2-7z m-16 35c-3-11-15-18-25-15-11 3-18 14-15 25l24 92c7-2 13-5 20-6 7-2 13-3 20-5l-24-91z m11 125c-119 31-191 154-159 274 15 58 52 106 104 137 35 20 73 30 112 30 20 0 39-3 58-8 120-31 191-154 160-274-32-119-155-191-275-159z m551-161c-9 24-27 43-50 54-24 10-50 11-74 2-50-18-75-74-57-124 15-38 52-62 91-62 11 0 22 2 33 6 50 18 76 74 57 124z m-67-96c-34-13-73 4-85 39-7 16-6 34 1 51 8 16 21 28 38 34 7 3 15 4 23 4 9 0 19-2 27-6 17-7 29-20 35-37 13-34-5-73-39-85z m-286 523c-14 37-42 67-78 84-36 16-77 18-114 4-78-29-117-115-88-193 22-59 79-97 140-97 17 0 35 4 52 10 77 29 117 115 88 192z m-104-149c-53-20-113 8-133 61-9 25-8 53 3 78 11 25 32 45 58 54 11 4 24 7 36 7 14 0 29-3 42-10 25-11 44-31 54-57 20-53-7-113-60-133z" horiz-adv-x="1000" />

<glyph glyph-name="two-building" unicode="&#xe892;" d="M951 598h-323v240c0 7-6 12-12 12h-567c-6 0-12-5-12-12v-976c0-7 6-12 12-12h567 335c7 0 12 5 12 12v724c0 7-5 12-12 12z m-348-12v-712h-541v952h541v-240z m335-712h-310v700h310v-700z m-88 620h-134c-7 0-12-5-12-12s5-12 12-12h134c7 0 12 5 12 12s-5 12-12 12z m0-103h-134c-7 0-12-6-12-12s5-13 12-13h134c7 0 12 6 12 13s-5 12-12 12z m0-103h-134c-7 0-12-5-12-12s5-12 12-12h134c7 0 12 5 12 12s-5 12-12 12z m0-103h-134c-7 0-12-6-12-12s5-13 12-13h134c7 0 12 6 12 13s-5 12-12 12z m0-103h-134c-7 0-12-6-12-12s5-13 12-13h134c7 0 12 6 12 13s-5 12-12 12z m0-103h-134c-7 0-12-6-12-12s5-13 12-13h134c7 0 12 6 12 13s-5 12-12 12z m-685 756c-7 0-12-5-12-12v-46c0-6 5-12 12-12s12 6 12 12v46c0 7-5 12-12 12z m112 0c-7 0-13-5-13-12v-46c0-6 6-12 13-12 6 0 12 6 12 12v46c0 7-6 12-12 12z m111 0c-7 0-12-5-12-12v-46c0-6 5-12 12-12 7 0 12 6 12 12v46c0 7-5 12-12 12z m112 0c-7 0-12-5-12-12v-46c0-6 5-12 12-12 7 0 12 6 12 12v46c0 7-5 12-12 12z m-335-140c-7 0-12-6-12-13v-45c0-7 5-13 12-13s12 6 12 13v45c0 7-5 13-12 13z m112 0c-7 0-13-6-13-13v-45c0-7 6-13 13-13 6 0 12 6 12 13v45c0 7-6 13-12 13z m111 0c-7 0-12-6-12-13v-45c0-7 5-13 12-13 7 0 12 6 12 13v45c0 7-5 13-12 13z m112 0c-7 0-12-6-12-13v-45c0-7 5-13 12-13 7 0 12 6 12 13v45c0 7-5 13-12 13z m-335-141c-7 0-12-5-12-12v-46c0-6 5-12 12-12s12 6 12 12v46c0 7-5 12-12 12z m112 0c-7 0-13-5-13-12v-46c0-6 6-12 13-12 6 0 12 6 12 12v46c0 7-6 12-12 12z m111 0c-7 0-12-5-12-12v-46c0-6 5-12 12-12 7 0 12 6 12 12v46c0 7-5 12-12 12z m112 0c-7 0-12-5-12-12v-46c0-6 5-12 12-12 7 0 12 6 12 12v46c0 7-5 12-12 12z m-335-141c-7 0-12-5-12-12v-45c0-7 5-13 12-13s12 6 12 13v45c0 7-5 12-12 12z m112 0c-7 0-13-5-13-12v-45c0-7 6-13 13-13 6 0 12 6 12 13v45c0 7-6 12-12 12z m111 0c-7 0-12-5-12-12v-45c0-7 5-13 12-13 7 0 12 6 12 13v45c0 7-5 12-12 12z m112 0c-7 0-12-5-12-12v-45c0-7 5-13 12-13 7 0 12 6 12 13v45c0 7-5 12-12 12z m-335-140c-7 0-12-6-12-12v-46c0-7 5-12 12-12s12 5 12 12v46c0 6-5 12-12 12z m112 0c-7 0-13-6-13-12v-46c0-7 6-12 13-12 6 0 12 5 12 12v46c0 6-6 12-12 12z m111 0c-7 0-12-6-12-12v-46c0-7 5-12 12-12 7 0 12 5 12 12v46c0 6-5 12-12 12z m112 0c-7 0-12-6-12-12v-46c0-7 5-12 12-12 7 0 12 5 12 12v46c0 6-5 12-12 12z m-335-141c-7 0-12-5-12-12v-46c0-6 5-12 12-12s12 6 12 12v46c0 7-5 12-12 12z m112 0c-7 0-13-5-13-12v-46c0-6 6-12 13-12 6 0 12 6 12 12v46c0 7-6 12-12 12z m111 0c-7 0-12-5-12-12v-46c0-6 5-12 12-12 7 0 12 6 12 12v46c0 7-5 12-12 12z m112 0c-7 0-12-5-12-12v-46c0-6 5-12 12-12 7 0 12 6 12 12v46c0 7-5 12-12 12z" horiz-adv-x="1000" />

<glyph glyph-name="curved-next-arrow" unicode="&#xe893;" d="M707 589v181l293-293-293-292v183c-345-26-623-205-691-438-10 35-16 72-16 110 0 284 310 519 707 549z" horiz-adv-x="1000" />
</font>
</defs>
</svg>
